# xmcd
#
# Track frame offsets: 
#        150
#        22733
#        34413
#        56850
#        76565
#        97302
#        114707
#        133193
#        162180
#        175418
#        200203
#        217065
#        237771
#        250074
#        266567
#        280918
#        306105
#        329090
#        342985
#
# Disc length: 4816 seconds
#
# Revision: 0
# Processed by: cddbd v1.5.1PL0 Copyright (c) Steve Scherf et al.
# Submitted via: ExactAudioCopy v0.95a3
#
DISCID=2412ce13
DTITLE=OMAR and The HOWLERS - The Very Best of...CD-1   80'15''
DYEAR=2005
DGENRE=Rockin' Blues
TTITLE0=Life Without You
TTITLE1=Party Girl
TTITLE2=Sugar Ditch
TTITLE3=Black Bottom
TTITLE4=Mississippi Mud
TTITLE5=Hit the Road, Jack
TTITLE6=Mystery Walk
TTITLE7=All the Love We Can Stand
TTITLE8=Got My Heart Set on You
TTITLE9=Shakin'
TTITLE10=Exactly What I Thought She'd Do
TTITLE11=Bad Ol' Man
TTITLE12=I'm Wise to You Baby
TTITLE13=Wall of Pride
TTITLE14=Dangerous Man
TTITLE15=Blues in a Bottle
TTITLE16=Big Town Shakedown
TTITLE17=She's a Woman
TTITLE18=Muddy Springs Road
EXTD=
EXTT0=
EXTT1=
EXTT2=
EXTT3=
EXTT4=
EXTT5=
EXTT6=
EXTT7=
EXTT8=
EXTT9=
EXTT10=
EXTT11=
EXTT12=
EXTT13=
EXTT14=
EXTT15=
EXTT16=
EXTT17=
EXTT18=
PLAYORDER=
